<svg xmlns="http://www.w3.org/2000/svg" viewBox="0 0 16 16"><defs><style>.a{fill:#87898b;}</style></defs><g transform="translate(-5 -4)"><path class="a" d="M7.783,4v.7H5V20H20.3V4.7H17.522V4H16.13v.7H9.174V4ZM6.391,6.087H7.783v.7H9.174v-.7H16.13v.7h1.391v-.7h1.391V7.478H6.391Zm0,2.783H18.913v9.739H6.391Zm4.174,1.391v1.391h1.391V10.261Zm2.783,0v1.391h1.391V10.261Zm2.783,0v1.391h1.391V10.261ZM7.783,13.043v1.391H9.174V13.043Zm2.783,0v1.391h1.391V13.043Zm2.783,0v1.391h1.391V13.043Zm2.783,0v1.391h1.391V13.043ZM7.783,15.826v1.391H9.174V15.826Zm2.783,0v1.391h1.391V15.826Zm2.783,0v1.391h1.391V15.826Z"/></g></svg>