<svg xmlns="http://www.w3.org/2000/svg" width="60" height="60.003" viewBox="0 0 60 60.003"><defs><style>.a{fill:#0095d9;}</style></defs><path class="a" d="M-4001.679-6955.356a29.928,29.928,0,0,1-9.536-6.429,29.879,29.879,0,0,1-6.428-9.536A29.812,29.812,0,0,1-4020-6983a29.8,29.8,0,0,1,2.358-11.676,29.9,29.9,0,0,1,6.428-9.538,29.956,29.956,0,0,1,9.536-6.43A29.817,29.817,0,0,1-3990-7013a29.817,29.817,0,0,1,11.678,2.358,29.919,29.919,0,0,1,9.536,6.43,29.935,29.935,0,0,1,6.429,9.538A29.826,29.826,0,0,1-3960-6983a29.841,29.841,0,0,1-2.357,11.678,29.912,29.912,0,0,1-6.429,9.536,29.909,29.909,0,0,1-9.536,6.429A29.808,29.808,0,0,1-3990-6953,29.808,29.808,0,0,1-4001.679-6955.356ZM-4016-6983a26.03,26.03,0,0,0,26,26,26.03,26.03,0,0,0,26-26,26.031,26.031,0,0,0-26-26A26.031,26.031,0,0,0-4016-6983Zm9,1.437,2.828-2.829,8.485,8.485L-3976.6-6995l2.828,2.831-19.091,19.091-2.828,2.829Z" transform="translate(4020.001 7013.001)"/></svg>