<svg id="icons8-close_window" xmlns="http://www.w3.org/2000/svg" viewBox="0 0 16 16">
  <defs>
    <style>
      .cls-1 {
        fill: #0095d9;
      }
    </style>
  </defs>
  <path id="Path_28" data-name="Path 28" class="cls-1" d="M13,0H3A3,3,0,0,0,0,3V13a3,3,0,0,0,3,3H13a3,3,0,0,0,3-3V3A3,3,0,0,0,13,0ZM11.558,10.7l-.856.853a.4.4,0,0,1-.567,0L8,9.423,5.865,11.558a.4.4,0,0,1-.567,0L4.442,10.7a.409.409,0,0,1,0-.57L6.577,8,4.445,5.868a.4.4,0,0,1,0-.57L5.3,4.445a.4.4,0,0,1,.57,0L8,6.577l2.135-2.132a.4.4,0,0,1,.567,0l.856.851a.408.408,0,0,1,0,.572L9.423,8l2.135,2.135A.409.409,0,0,1,11.558,10.7Z"/>
</svg>
