<svg xmlns="http://www.w3.org/2000/svg" xmlns:xlink="http://www.w3.org/1999/xlink" viewBox="0 0 15.577 16"><defs><style>.a{fill:none;}.b{clip-path:url(#a);}.c{fill:#87898b;}</style><clipPath id="a"><rect class="a" width="15.577" height="16"/></clipPath></defs><g class="b"><g transform="translate(-3.344 -3)"><path class="c" d="M9.4,3l-.1.5L8.94,5.327a6.116,6.116,0,0,0-1.6.942L5.555,5.654,5.075,5.5l-.25.442L3.594,8.058l-.25.442.365.327,1.385,1.212A6.007,6.007,0,0,0,4.978,11a6.007,6.007,0,0,0,.115.962L3.709,13.173l-.365.327.25.442,1.231,2.115.25.442.481-.154,1.788-.615a6.116,6.116,0,0,0,1.6.942L9.305,18.5l.1.5h3.462l.1-.5.365-1.827a6.116,6.116,0,0,0,1.6-.942l1.788.615.481.154.25-.442,1.231-2.115.25-.442-.365-.327-1.385-1.212A6.007,6.007,0,0,0,17.286,11a6.007,6.007,0,0,0-.115-.962l1.385-1.212.365-.327-.25-.442L17.44,5.942,17.19,5.5l-.481.154-1.788.615a6.116,6.116,0,0,0-1.6-.942L12.959,3.5l-.1-.5Zm1,1.231h1.462l.308,1.6.077.365.346.115a4.933,4.933,0,0,1,1.865,1.077l.269.25.346-.115,1.558-.538.731,1.25-1.231,1.1-.288.231.1.365a5.083,5.083,0,0,1,0,2.154l-.077.365.269.231,1.231,1.1-.731,1.25-1.558-.538-.346-.115-.269.25a4.933,4.933,0,0,1-1.865,1.077l-.346.115-.077.365-.308,1.6H10.4l-.308-1.6-.077-.365-.346-.115a4.933,4.933,0,0,1-1.865-1.077l-.269-.25-.346.115-1.558.538L4.9,13.769l1.231-1.1.288-.231-.1-.365a5.083,5.083,0,0,1,0-2.154l.1-.365-.288-.231L4.9,8.231l.731-1.25,1.558.538.346.115.269-.25A4.933,4.933,0,0,1,9.671,6.308l.346-.115.077-.365Zm.731,3.692A3.077,3.077,0,1,0,14.209,11,3.086,3.086,0,0,0,11.132,7.923Zm0,1.231A1.846,1.846,0,1,1,9.286,11,1.837,1.837,0,0,1,11.132,9.154Z" transform="translate(0)"/></g></g></svg>