<svg xmlns="http://www.w3.org/2000/svg" viewBox="0 0 17 15.447"><defs><style>.a{opacity:0.999;}.b{fill:#fff;}</style></defs><g class="a" transform="translate(-1.962 -2.861)"><path class="b" d="M17.8,2.861,15.57,5.639l-2.1-1.594-.511-.368-.388.49L10.278,7.029,8.132,5.946,7.621,5.7l-.327.47L5.067,9.522,3,7.969,2.227,9.031l2.615,1.962.552.409.388-.572L8.071,7.4l2.1,1.042.47.225.327-.409L13.2,5.476,15.3,7.07l.511.368.388-.49,2.615-3.269Zm-.143,4.986V18.308h1.308V7.846ZM12.423,9.808v8.5h1.308v-8.5Zm-5.231.654v7.846H8.5V10.462Zm7.846.654v7.192h1.308V11.115Zm-13.077.654v6.538H3.269V11.769Zm7.846,0v6.538h1.308V11.769ZM4.577,13.731v4.577H5.885V13.731Z"/></g></svg>