<svg xmlns="http://www.w3.org/2000/svg" viewBox="0 0 17 17"><defs><style>.a{fill:#fff;}</style></defs><g transform="translate(-2.833 -2.833)"><path class="a" d="M11.333,2.833a8.5,8.5,0,1,0,8.5,8.5A8.509,8.509,0,0,0,11.333,2.833Zm0,1.417A7.083,7.083,0,1,1,4.25,11.333,7.072,7.072,0,0,1,11.333,4.25Zm0,.708a.708.708,0,1,0,.708.708A.71.71,0,0,0,11.333,4.958ZM7.327,6.618a.708.708,0,1,0,.708.708A.71.71,0,0,0,7.327,6.618Zm7.5.221L11.688,9.961a1.365,1.365,0,0,0-.354-.044,1.417,1.417,0,1,0,1.417,1.417,1.365,1.365,0,0,0-.044-.354l3.143-3.143ZM5.667,10.625a.708.708,0,1,0,.708.708A.71.71,0,0,0,5.667,10.625Zm11.333,0a.708.708,0,1,0,.708.708A.71.71,0,0,0,17,10.625ZM7.327,14.632a.708.708,0,1,0,.708.708A.71.71,0,0,0,7.327,14.632Zm8.013,0a.708.708,0,1,0,.708.708A.71.71,0,0,0,15.34,14.632Z"/></g></svg>