<svg xmlns="http://www.w3.org/2000/svg" viewBox="0 0 12.308 12.308"><defs><style>.a{fill:#87898b;}</style></defs><g transform="translate(-2.051 0.949)"><path class="a" d="M8.141,2.051l-.048.016L2.452,3.317l-.4.1V13l.4.1,5.641,1.25.048.016h1.09V12.821h5.128V3.59H9.231V2.051Zm.064,1.042V13.317L3.077,12.2V4.215ZM9.231,4.615h4.1v7.179h-4.1V10.769h3.59V9.744H9.231V9.231h3.59V8.205H9.231V7.692h3.59V6.667H9.231V6.154h3.59V5.128H9.231ZM7.692,5.641l-.8.064c-.06.407-.379,2.6-.385,2.772L6.17,5.8l-1.09.16L4.647,8.734,4.359,6.058l-.769.1.513,4.1.994.16.561-3.285c0,.184.389,2.724.5,3.462l.753.128Z" transform="translate(0 -3)"/></g></svg>