<svg xmlns="http://www.w3.org/2000/svg" viewBox="0 0 36 36"><defs><style>.a{fill:#0095d9;}</style></defs><g transform="translate(-1.143 -1.143)"><path class="a" d="M16.571,1.143V7.571l2.571,2.571V3.714h9v6.429h6.429V26.857H24.286v2.571H37.143V8.315l-.286-.342L30.679,1.449l-.321-.306Zm14.4,3.737,2.637,2.792H30.97ZM1.143,8.857V37.143H21.714V16.029l-.286-.342-6.142-6.83Zm2.571,2.571h9v6.429h6.429V34.571H3.714Zm11.828,1.165,2.637,2.792H15.542ZM24.286,14v2.571H32V14Zm0,5.143v2.571H32V19.143Zm-18,2.571v2.571H16.571V21.714Zm0,5.143v2.571H16.571V26.857Z" transform="translate(0 0)"/></g></svg>