<svg xmlns="http://www.w3.org/2000/svg" viewBox="0 0 17 17"><defs><style>.a{fill:#fff;}</style></defs><g transform="translate(-2.833 -2.833)"><path class="a" d="M11.333,2.833a8.5,8.5,0,1,0,8.5,8.5A8.509,8.509,0,0,0,11.333,2.833Zm0,1.417A7.083,7.083,0,1,1,4.25,11.333,7.072,7.072,0,0,1,11.333,4.25Zm0,2.833A2.842,2.842,0,0,0,8.5,9.917H9.917a1.417,1.417,0,0,1,2.833,0,1.261,1.261,0,0,1-.863,1.2L11.6,11.2a1.431,1.431,0,0,0-.974,1.35v.908h1.417v-.908l.288-.089a2.7,2.7,0,0,0,1.837-2.546A2.842,2.842,0,0,0,11.333,7.083Zm-.708,7.083v1.417h1.417V14.167Z"/></g></svg>