<svg xmlns="http://www.w3.org/2000/svg" viewBox="0 0 16 16"><defs><style>.a{fill:#0095d9;}</style></defs><g transform="translate(-16 -35)"><path class="a" d="M11.917,4l-.062.021L4.521,5.646,4,5.771V18.229l.521.125,7.333,1.625.063.021h1.417V18H20V6H13.333V4ZM12,5.354V18.646L5.333,17.188V6.813Zm1.333,1.979h5.333v9.333H13.333V15.333h1.333V14H13.333v-.667h1.333V12H13.333v-.667h1.333V10H13.333V9.333h1.333V8H13.333Zm2,.667V9.333H18V8Zm-4.562.667L9.25,8.854l-.833,1.792c-.089.258-.154.453-.187.583H8.208a3.977,3.977,0,0,0-.167-.562L7.625,9.125l-1.417.167-.062.042L7.333,12,6,14.667l1.438.167.583-1.646a4.328,4.328,0,0,0,.146-.479h.021a2.351,2.351,0,0,0,.1.458l.9,1.958,1.625.208L9.042,11.979ZM15.333,10v1.333H18V10Zm0,2v1.333H18V12Zm0,2v1.333H18V14Z" transform="translate(12 31)"/></g></svg>