<svg xmlns="http://www.w3.org/2000/svg" viewBox="0 0 12.308 16"><defs><style>.a{fill:#87898b;}</style></defs><g transform="translate(-6 -3)"><path class="a" d="M6,3V19H18.308V3ZM7.231,4.231h9.846V17.769H7.231Zm4.558,3.288a.888.888,0,0,0-.558.192.851.851,0,0,0-.269.462,2.323,2.323,0,0,0,.019,1.058,9.532,9.532,0,0,0,.577,1.5A12.181,12.181,0,0,1,11.25,12.1a9.8,9.8,0,0,1-.5,1.019,7.324,7.324,0,0,0-1.154.423,2.081,2.081,0,0,0-.788.75,1.086,1.086,0,0,0,.077,1.1.982.982,0,0,0,.462.385.866.866,0,0,0,.6.019,1.9,1.9,0,0,0,.865-.731,9.2,9.2,0,0,0,.6-1.231,8.173,8.173,0,0,1,.865-.308,7.058,7.058,0,0,1,.9-.077,5.818,5.818,0,0,0,.4.538,1.7,1.7,0,0,0,1,.481,1.107,1.107,0,0,0,.981-.577h.019v-.019a1.025,1.025,0,0,0,.154-.538.859.859,0,0,0-.231-.538,1.415,1.415,0,0,0-.923-.385,6.344,6.344,0,0,0-.962.077,7.71,7.71,0,0,1-.808-1.115c-.137-.255-.173-.471-.288-.731a10.677,10.677,0,0,0,.288-1.25,2.837,2.837,0,0,0-.115-1.173,1.125,1.125,0,0,0-.327-.481.92.92,0,0,0-.558-.212Zm.4,4.558c.111.195.248.317.365.5-.173.031-.305,0-.481.038-.029.007-.048.031-.077.038.036-.1.082-.154.115-.25C12.154,12.291,12.156,12.19,12.192,12.077Zm2.269,1.25a.935.935,0,0,1,.308.077c0,.01.007.007,0,.019-.077.127-.084.118-.135.115a1.286,1.286,0,0,1-.346-.192C14.332,13.349,14.423,13.322,14.462,13.327Zm-4.308.962c-.034.05-.062.168-.1.212a1.356,1.356,0,0,1-.4.385c-.007-.01.012,0,0-.019H9.635c-.062-.089-.046-.053,0-.135a1.344,1.344,0,0,1,.442-.4C10.1,14.315,10.135,14.3,10.154,14.288Z"/></g></svg>