<svg xmlns="http://www.w3.org/2000/svg" viewBox="0 0 16 16"><defs><style>.a{fill:#87898b;}</style></defs><g transform="translate(-33.875 -7.031)"><path class="a" d="M14.583,4.031,5.514,13.1l-.042.187L4.124,18.994l-.249,1.038,1.038-.249,5.707-1.349.187-.042,9.069-9.069-.934-.934-7.969,7.948A3.854,3.854,0,0,0,9.208,14.7,3.525,3.525,0,0,0,7.59,12.913l7.927-7.948ZM6.677,14.013a2.3,2.3,0,0,1,.311.1A1.987,1.987,0,0,1,8.129,15.4l.083.27.27.125A2.327,2.327,0,0,1,9.831,17a1.8,1.8,0,0,1,.083.228l-2.636.623L6.054,16.628Z" transform="translate(30 3)"/></g></svg>