<?xml version="1.0" encoding="UTF-8" standalone="no"?>
<svg
   xmlns:dc="http://purl.org/dc/elements/1.1/"
   xmlns:cc="http://creativecommons.org/ns#"
   xmlns:rdf="http://www.w3.org/1999/02/22-rdf-syntax-ns#"
   xmlns:svg="http://www.w3.org/2000/svg"
   xmlns="http://www.w3.org/2000/svg"
   xmlns:sodipodi="http://sodipodi.sourceforge.net/DTD/sodipodi-0.dtd"
   xmlns:inkscape="http://www.inkscape.org/namespaces/inkscape"
   id="svg10"
   version="1.1"
   viewBox="0 0 16 16"
   sodipodi:docname="pencil-blue.svg"
   inkscape:version="0.92.4 (5da689c313, 2019-01-14)">
  <sodipodi:namedview
     pagecolor="#ffffff"
     bordercolor="#666666"
     borderopacity="1"
     objecttolerance="10"
     gridtolerance="10"
     guidetolerance="10"
     inkscape:pageopacity="0"
     inkscape:pageshadow="2"
     inkscape:window-width="789"
     inkscape:window-height="480"
     id="namedview8"
     showgrid="false"
     inkscape:zoom="14.75"
     inkscape:cx="8"
     inkscape:cy="8"
     inkscape:window-x="2893"
     inkscape:window-y="387"
     inkscape:window-maximized="0"
     inkscape:current-layer="svg10" />
  <metadata
     id="metadata14">
    <rdf:RDF>
      <cc:Work
         rdf:about="">
        <dc:format>image/svg+xml</dc:format>
        <dc:type
           rdf:resource="http://purl.org/dc/dcmitype/StillImage" />
        <dc:title />
      </cc:Work>
    </rdf:RDF>
  </metadata>
  <defs
     id="defs4">
    <style
       id="style2">.a{fill:#87898b;}</style>
  </defs>
  <g
     style="fill:#0095d9;fill-opacity:1"
     id="g8"
     transform="translate(-33.875 -7.031)">
    <path
       style="fill:#0095d9;fill-opacity:1"
       id="path6"
       transform="translate(30 3)"
       d="M14.583,4.031,5.514,13.1l-.042.187L4.124,18.994l-.249,1.038,1.038-.249,5.707-1.349.187-.042,9.069-9.069-.934-.934-7.969,7.948A3.854,3.854,0,0,0,9.208,14.7,3.525,3.525,0,0,0,7.59,12.913l7.927-7.948ZM6.677,14.013a2.3,2.3,0,0,1,.311.1A1.987,1.987,0,0,1,8.129,15.4l.083.27.27.125A2.327,2.327,0,0,1,9.831,17a1.8,1.8,0,0,1,.083.228l-2.636.623L6.054,16.628Z"
       class="a" />
  </g>
</svg>
