<svg xmlns="http://www.w3.org/2000/svg" xmlns:xlink="http://www.w3.org/1999/xlink" viewBox="0 0 16 16"><defs><style>.a{fill:#fff;}.b{fill:none;}.c{clip-path:url(#a);}.d{clip-path:url(#b);}</style><clipPath id="a"><rect class="b" width="16" height="16"/></clipPath><clipPath id="b"><rect class="a" width="16" height="16" transform="translate(1162 374)"/></clipPath></defs><g class="c"><g transform="translate(-232 -249)"><g class="d" transform="translate(-930 -125)"><g transform="translate(1160.154 372.154)"><path class="a" d="M9.846,1.846a8,8,0,1,0,8,8A8.009,8.009,0,0,0,9.846,1.846Zm0,1.231A6.769,6.769,0,1,1,3.077,9.846,6.761,6.761,0,0,1,9.846,3.077ZM7.519,6.635l-.885.885L8.962,9.846,6.635,12.173l.885.885,2.327-2.327,2.327,2.327.885-.885L10.731,9.846l2.327-2.327-.885-.885L9.846,8.962Z"/></g></g></g></g></svg>