<svg xmlns="http://www.w3.org/2000/svg" xmlns:xlink="http://www.w3.org/1999/xlink" viewBox="0 0 16 16"><defs><style>.a{fill:#fff;}.b{clip-path:url(#a);}</style><clipPath id="a"><rect class="a" width="16" height="16" transform="translate(1162 350)"/></clipPath></defs><g class="b" transform="translate(-1162 -350)"><g transform="translate(1160.154 347.817)"><path class="a" d="M1.846,3.077V14.154H4.923v3.135l1-.808,2.9-2.327h9.019V3.077ZM3.077,4.308H16.615v8.615H8.4l-.173.135L6.154,14.712V12.923H3.077Zm5.365,1.4-2.9,2.9,2.9,2.9.865-.885-1.4-1.4h3.769a1.254,1.254,0,0,1,1.25,1.25v1.212h1.231V10.481A2.5,2.5,0,0,0,11.673,8H7.9l1.4-1.4Z"/></g></g></svg>