<svg xmlns="http://www.w3.org/2000/svg" viewBox="0 0 16.611 17.063"><defs><style>.a{opacity:0.999;}.b{fill:#fff;}</style></defs><g class="a" transform="translate(-3.344 -3)"><path class="b" d="M9.8,3l-.1.533-.39,1.948a6.523,6.523,0,0,0-1.7,1L5.7,5.83l-.513-.164-.267.472L3.61,8.394l-.267.472.39.349L5.21,10.506a6.406,6.406,0,0,0-.123,1.025,6.406,6.406,0,0,0,.123,1.025L3.733,13.849l-.39.349.267.472,1.313,2.256.267.472.513-.164,1.907-.656a6.523,6.523,0,0,0,1.7,1l.39,1.948.1.533H13.5l.1-.533.39-1.948a6.523,6.523,0,0,0,1.7-1l1.907.656.513.164.267-.472,1.313-2.256.267-.472-.39-.349-1.477-1.292a6.405,6.405,0,0,0,.123-1.025,6.405,6.405,0,0,0-.123-1.025l1.477-1.292.39-.349-.267-.472L18.376,6.138l-.267-.472L17.6,5.83l-1.907.656a6.522,6.522,0,0,0-1.7-1L13.6,3.533,13.5,3ZM10.87,4.313h1.559l.328,1.7.082.39.369.123A5.261,5.261,0,0,1,15.2,7.676l.287.267.369-.123,1.661-.574.779,1.333L16.981,9.747l-.308.246.1.39a5.421,5.421,0,0,1,0,2.3l-.082.39.287.246,1.313,1.169-.779,1.333-1.661-.574-.369-.123-.287.267a5.261,5.261,0,0,1-1.989,1.148l-.369.123-.082.39-.328,1.7H10.87l-.328-1.7-.082-.39-.369-.123A5.261,5.261,0,0,1,8.1,15.387l-.287-.267-.369.123-1.661.574L5,14.484l1.313-1.169.308-.246-.1-.39a5.421,5.421,0,0,1,0-2.3l.1-.39-.308-.246L5,8.578l.779-1.333,1.661.574.369.123L8.1,7.676a5.261,5.261,0,0,1,1.989-1.148L10.46,6.4l.082-.39Zm.779,3.937a3.281,3.281,0,1,0,3.281,3.281A3.291,3.291,0,0,0,11.649,8.25Zm0,1.312a1.969,1.969,0,1,1-1.969,1.969A1.959,1.959,0,0,1,11.649,9.562Z"/></g></svg>