<svg xmlns="http://www.w3.org/2000/svg" xmlns:xlink="http://www.w3.org/1999/xlink" viewBox="0 0 17 17"><defs><style>.a,.c{fill:#fff;}.a,.b{opacity:1;}.b{clip-path:url(#a);}</style><clipPath id="a"><rect class="a" width="17" height="17" transform="translate(15 376)"/></clipPath></defs><g class="b" transform="translate(-15 -376)"><g transform="translate(12.167 373.167)"><path class="c" d="M4.25,2.833v17H18.417v-17ZM5.667,4.25H17V18.417H5.667ZM7.083,6.375V7.792h8.5V6.375Zm0,2.833v1.417h8.5V9.208Zm2.479,2.125a1.651,1.651,0,0,0-1.417.93,4,4,0,0,0-.354,1.815,7.718,7.718,0,0,0,.221,1.284,3.394,3.394,0,0,1-.908.31v1.417a4.662,4.662,0,0,0,1.417-.221,2.03,2.03,0,0,0,.2.332,1.693,1.693,0,0,0,1.173.509,3.065,3.065,0,0,0,2.346-1.328c.1-.119.141-.183.221-.288a1.231,1.231,0,0,0,.044.243,1.032,1.032,0,0,0,.31.443,1.073,1.073,0,0,0,.642.221,1.124,1.124,0,0,0,.863-.421c.169-.172.307-.34.443-.487.268-.293.462-.465.775-.465V14.211a2.471,2.471,0,0,0-1.815.908,1.268,1.268,0,0,0-.044-.243,1.1,1.1,0,0,0-.288-.465.98.98,0,0,0-.642-.243,1.255,1.255,0,0,0-1.018.576c-.21.243-.4.512-.6.753-.39.479-.73.8-1.24.8-.036,0-.075-.036-.111-.066.042-.028.094-.036.133-.066a3.306,3.306,0,0,0,1.417-2.612,2.593,2.593,0,0,0-.4-1.483A1.7,1.7,0,0,0,9.563,11.333ZM9.5,12.75c.017-.014.022,0,.066,0,.149,0,.136.017.2.111a1.317,1.317,0,0,1,.155.686,1.718,1.718,0,0,1-.6,1.2,6.144,6.144,0,0,1-.111-.664,2.894,2.894,0,0,1,.2-1.173A.743.743,0,0,1,9.5,12.75Z"/></g></g></svg>