<svg xmlns="http://www.w3.org/2000/svg" xmlns:xlink="http://www.w3.org/1999/xlink" viewBox="0 0 17 17"><defs><style>.a,.c{fill:#fff;}.a,.b{opacity:1;}.b{clip-path:url(#a);}</style><clipPath id="a"><rect class="a" width="17" height="17" transform="translate(15 226)"/></clipPath></defs><g class="b" transform="translate(-15 -226)"><g transform="translate(14.433 224.867)"><path class="c" d="M9.067,2.833a3.963,3.963,0,0,0-2.216,7.252A5.68,5.68,0,0,0,3.4,15.3H4.533a4.527,4.527,0,0,1,3.075-4.292l1.317,1.317L7.933,15.3l1.133,1.133L10.2,15.3l-.992-2.975,1.317-1.317A4.527,4.527,0,0,1,13.6,15.3h1.133a5.68,5.68,0,0,0-3.451-5.215A3.963,3.963,0,0,0,9.067,2.833Zm0,1.133A2.833,2.833,0,1,1,6.233,6.8,2.825,2.825,0,0,1,9.067,3.967Zm4.533.607V5.726a1.938,1.938,0,0,1,0,3.847V10.82a3.452,3.452,0,0,1,2.833,3.347h1.133a4.59,4.59,0,0,0-2.45-4A2.973,2.973,0,0,0,16.433,7.65,3.086,3.086,0,0,0,13.6,4.573Zm-9.067,0A3.123,3.123,0,0,0,1.7,7.65a2.973,2.973,0,0,0,1.317,2.512,4.59,4.59,0,0,0-2.45,4H1.7A3.452,3.452,0,0,1,4.533,10.82V9.574a1.94,1.94,0,0,1-1.7-1.924,1.967,1.967,0,0,1,1.7-1.921Z"/></g></g></svg>